<?xml version="1.0" encoding="utf-8"?>
<!-- Generator: Adobe Illustrator 18.1.1, SVG Export Plug-In . SVG Version: 6.00 Build 0)  -->
<svg version="1.1" id="Layer_1" xmlns="http://www.w3.org/2000/svg" xmlns:xlink="http://www.w3.org/1999/xlink" x="0px" y="0px"
	 viewBox="0 0 1366 655.4" enable-background="new 0 0 1366 655.4" xml:space="preserve">
<g>
	<g>
		<path fill="#263B7F" d="M668.5,649.5h-11.1l-39-104.6h10.9l33.7,94.3l34.9-94.3h10.2L668.5,649.5z"/>
	</g>
	<rect x="-2" y="-0.4" fill="none" width="1366" height="655.7"/>
	<polygon fill="#F69022" points="-2,411 -2,650.4 170,650.4 170,411 -2,239 	"/>
	<polygon fill="#F69022" points="170,-0.4 170,411 341.9,239 341.9,-0.4 	"/>
	<polygon fill="#FFFFFF" points="170,411 170,650.4 341.9,650.4 341.9,411 341.9,239 	"/>
	<polygon fill="#263B7F" points="341.9,239 341.9,411 341.9,650.4 513.9,650.4 513.9,411 	"/>
	<g>
		<path fill="#263B7F" d="M626.5,241.6h43.9l22.2,69.6h0.3l23.2-69.6h42.3v104.6h-27.3l0.4-80.4h-0.3l-26.7,80.4H679l-25.5-80.4
			h-0.3l0.6,80.4h-27.3V241.6z"/>
	</g>
	<g>
		<path fill="#263B7F" d="M807.6,241.6h34.2l40.3,104.6h-30.6l-7.8-22.3h-39.3l-8.2,22.3h-28.3L807.6,241.6z M824.7,263.2h-0.3
			l-13.5,40.9h26.2L824.7,263.2z"/>
	</g>
	<g>
		<path fill="#263B7F" d="M892.6,320.5c7.2,3.9,17.2,6.9,28.8,6.9c8.8,0,17.2-1.8,17.2-10.2c0-19.5-49.5-7.2-49.5-45.3
			c0-25.2,24.6-32.1,45.6-32.1c10,0,19.9,1.5,27,3.9l-1.8,21.6c-7.2-3.3-15.3-4.8-23.2-4.8c-7,0-18.7,0.6-18.7,9.7
			c0,16.9,49.5,5.5,49.5,43.3c0,27.1-22.8,34.5-46,34.5c-9.7,0-21.9-1.5-31.2-4.5L892.6,320.5z"/>
	</g>
	<g>
		<path fill="#263B7F" d="M1001.2,262.3h-25.8v-20.7h79.5v20.7h-25.8v84h-27.9V262.3z"/>
	</g>
	<g>
		<path fill="#263B7F" d="M1065,241.6h73.8v19.8h-45.9V283h43.3v19.8h-43.3v23.7h47.5v19.8H1065V241.6z"/>
	</g>
	<g>
		<path fill="#263B7F" d="M1152.9,241.6h49.8c18.6,0,33.7,8.4,33.7,26.4c0,13.9-6.6,23.2-20.1,26.4v0.3c9,2.4,9.6,10.3,14.8,23.1
			l10.2,28.5h-29.1l-6-18.9c-5.7-18-9.3-22.5-19.6-22.5h-5.8v41.4h-27.9V241.6z M1180.8,285.1h7.3c9,0,20.4-0.3,20.4-12.1
			c0-9.7-9.7-11.5-20.4-11.5h-7.3V285.1z"/>
	</g>
	<g>
		<path fill="#263B7F" d="M626.5,393.2h48.1c19.5,0,34,8.5,34,26.5c0,13.2-6.7,20.5-18.4,24.4v0.3c13.9,2.8,21.1,10.3,21.1,23.1
			c0,25-22,30.3-40.8,30.3h-44.1V393.2z M654.4,434.6h7.8c9.1,0,18.6-2.2,18.6-11.1c0-9.6-9-10.5-18.3-10.5h-8.1V434.6z
			 M654.4,478.1h8.2c10.2,0,20.8-1.5,20.8-12.1c0-11.4-10.9-12.4-20.5-12.4h-8.5V478.1z"/>
	</g>
	<g>
		<path fill="#263B7F" d="M813.7,458.1c0,28.6-18.6,41.5-45.9,41.5S722,486.8,722,458.1v-64.9h27.9v60.3c0,13.8,3.7,25.5,18,25.5
			c14.2,0,18-11.7,18-25.5v-60.3h27.9V458.1z"/>
	</g>
	<g>
		<path fill="#263B7F" d="M829.3,393.2h27.9v104.6h-27.9V393.2z"/>
	</g>
	<g>
		<path fill="#263B7F" d="M874.3,393.2h27.9v84h43.2v20.7h-71.1V393.2z"/>
	</g>
	<g>
		<path fill="#263B7F" d="M956.9,393.2H995c36.4,0,61.9,11.4,61.9,51.9c0,39.1-26.2,52.8-61.9,52.8h-38.1V393.2z M984.8,477.2h10.8
			c20.8,0,32.5-10.8,32.5-31.6c0-20.8-12.1-31.6-32.5-31.6h-10.8V477.2z"/>
	</g>
	<g>
		<path fill="#263B7F" d="M1069.1,393.2h73.8V413H1097v21.6h43.3v19.8H1097v23.7h47.5v19.8h-75.4V393.2z"/>
	</g>
	<g>
		<path fill="#263B7F" d="M1157,393.2h49.8c18.6,0,33.7,8.4,33.7,26.4c0,13.9-6.6,23.2-20.1,26.4v0.3c9,2.4,9.6,10.3,14.8,23.1
			l10.2,28.5h-29.1l-6-18.9c-5.7-18-9.3-22.5-19.6-22.5h-5.8v41.4H1157V393.2z M1184.8,436.7h7.3c9,0,20.4-0.3,20.4-12.1
			c0-9.7-9.7-11.5-20.4-11.5h-7.3V436.7z"/>
	</g>
	<g>
		<path fill="#263B7F" d="M1257.2,472.1c7.2,3.9,17.2,6.9,28.8,6.9c8.8,0,17.2-1.8,17.2-10.2c0-19.5-49.5-7.2-49.5-45.3
			c0-25.2,24.6-32.1,45.6-32.1c10,0,19.9,1.5,27,3.9l-1.8,21.6c-7.2-3.3-15.3-4.8-23.2-4.8c-7,0-18.7,0.6-18.7,9.7
			c0,16.9,49.5,5.5,49.5,43.3c0,27.1-22.8,34.5-46,34.5c-9.7,0-21.9-1.5-31.2-4.5L1257.2,472.1z"/>
	</g>
	<g>
		<path fill="#263B7F" d="M728.1,544.8h10.3v104.6h-10.3V544.8z"/>
	</g>
	<g>
		<path fill="#263B7F" d="M833.1,556.5c-6.6-3.4-16-4.5-23.4-4.5c-27.1,0-42.4,19.2-42.4,45.1c0,26.4,14.8,45.1,42.4,45.1
			c6.9,0,17.4-0.9,23.4-4.5l0.6,9c-5.7,3.4-17.4,4.5-24,4.5c-33,0-52.8-21.7-52.8-54.1c0-31.8,20.4-54.1,52.8-54.1
			c6.1,0,18.6,1,24,3.9L833.1,556.5z"/>
	</g>
	<g>
		<path fill="#263B7F" d="M882.3,553.8h-30.9v-9h72.1v9h-30.9v95.6h-10.3V553.8z"/>
	</g>
	<g>
		<path fill="#263B7F" d="M974.5,543c31.5,0,46.3,25.8,46,54.1c-0.3,32.1-15.9,54.1-46,54.1c-30.1,0-45.7-22-46-54.1
			C928.2,568.8,943,543,974.5,543z M938.8,597.1c0,22.2,11.1,45.1,35.7,45.1s35.7-22.9,35.7-45.1c0-22.2-11.1-45.1-35.7-45.1
			S938.8,575,938.8,597.1z"/>
	</g>
	<g>
		<path fill="#263B7F" d="M1040.3,544.8h27c18.6,0,30.7,7.9,30.7,27.1c0,13.5-10.3,22.5-23.2,24.1v0.3c8.4,1,10.2,5.5,13.5,12.6
			l17.8,40.5h-11.4l-15.1-35.4c-6-13.5-10.5-13.9-20.4-13.9h-8.5v49.3h-10.3V544.8z M1050.6,591.1h10.9c12.1,0,26.1-4.6,26.1-19.2
			c0-17.1-12.1-18.1-26.4-18.1h-10.6V591.1z"/>
	</g>
	<g>
		<path fill="#263B7F" d="M1126.5,544.8h10.3v104.6h-10.3V544.8z"/>
	</g>
	<g>
		<path fill="#263B7F" d="M1197.6,544.8h11.7l41.5,104.6H1240l-11.2-28H1176l-11.2,28h-10L1197.6,544.8z M1202.7,554.7l-22.8,57.7
			h45.4L1202.7,554.7z"/>
	</g>
	<rect x="-2" y="-0.4" fill="none" width="1366" height="655.7"/>
</g>
</svg>
